# xmcd CD database file
#
# Track frame offsets:
#	150
#	11100
#	24246
#	39009
#	50441
#	64107
#	77933
#	91445
#	105566
#	119938
#	133663
#	146873
#	160547
#	174073
#	187948
#	202798
#	216553
#	230353
#	246157
#	260320
#	275276
#	289864
#	303345
#	315440
#	328277
#	342730
#
# Disc length: 4757 seconds
#
# Revision: 0
# Processed by: cddbd v1.5.2PL0 Copyright (c) Steve Scherf et al.
# Submitted via: CDex 1.70beta2
#
DISCID=7612931a
DTITLE=Louis Armstrong - West End Blues (His 26 finest Hot Fives and Hot Sevens 1925-28)
DYEAR=2008
DGENRE=Jazz
TTITLE0=My Heart
TTITLE1=Heebie Jeebies
TTITLE2=Cornet Chop Suey
TTITLE3=Muskrat Ramble
TTITLE4=Jazz Lips
TTITLE5=Skid-Dat-De-Dat
TTITLE6=Big Butter and Egg Man
TTITLE7=Willie the Weeper
TTITLE8=Wild Man Blues
TTITLE9=Alligator Crawl
TTITLE10=Potato Head Blues
TTITLE11=Melancholy Blues
TTITLE12=Weary Blues
TTITLE13=Struttin' with Some Barbecue
TTITLE14=Once in a While
TTITLE15=I'm not rough
TTITLE16=Hotter than that
TTITLE17=Savoy Blues
TTITLE18=Skip the Gutter
TTITLE19=West End Blues
TTITLE20=Basin Street Blues
TTITLE21=Beau Koo Jack
TTITLE22=Weather Bird
TTITLE23=Muggles
TTITLE24=St. James'Infirmary
TTITLE25=Tight Like This
EXTD=YEAR: 2008
EXTT0=
EXTT1=
EXTT2=
EXTT3=
EXTT4=
EXTT5=
EXTT6=
EXTT7=
EXTT8=
EXTT9=
EXTT10=
EXTT11=
EXTT12=
EXTT13=
EXTT14=
EXTT15=
EXTT16=
EXTT17=
EXTT18=
EXTT19=
EXTT20=
EXTT21=
EXTT22=
EXTT23=
EXTT24=
EXTT25=
PLAYORDER=
